# xmcd
#
# Track frame offsets: 
#        150
#        20348
#        75473
#        91946
#        105492
#        134958
#        151849
#        174865
#        213855
#        229051
#
# Disc length: 3775 seconds
#
# Revision: 0
# Processed by: cddbd v1.5.2PL0 Copyright (c) Steve Scherf et al.
# Submitted via: ExactAudioCopy v0.95a5
#
DISCID=6f0ebd0a
DTITLE=俞逊发 - 笛子演奏家 俞逊发
DYEAR=1900
DGENRE=Classical
TTITLE0=姑苏行
TTITLE1=秋湖月夜
TTITLE2=一枝梅
TTITLE3=喜相逢
TTITLE4=中花六板
TTITLE5=扬鞭催马运粮忙
TTITLE6=妆台秋思
TTITLE7=琅琊神韵
TTITLE8=收割
TTITLE9=协奏曲《汇流》
EXTD=
EXTT0=
EXTT1=
EXTT2=
EXTT3=
EXTT4=
EXTT5=
EXTT6=
EXTT7=
EXTT8=
EXTT9=
PLAYORDER=
